<svg width="40" height="26" viewBox="0 0 40 26" fill="none" xmlns="http://www.w3.org/2000/svg">
<path d="M18.041 19.3735C18.283 19.3735 18.4975 19.467 18.6845 19.654L20.4335 21.5515C19.4655 22.7505 18.272 23.669 16.853 24.307C15.445 24.945 13.751 25.264 11.771 25.264C10 25.264 8.405 24.9615 6.986 24.3565C5.578 23.7515 4.3735 22.91 3.3725 21.832C2.3715 20.754 1.6015 19.467 1.0625 17.971C0.5345 16.475 0.2705 14.8415 0.2705 13.0705C0.2705 11.2775 0.5565 9.6385 1.1285 8.1535C1.7005 6.6575 2.5035 5.3705 3.5375 4.2925C4.5825 3.2145 5.8255 2.3785 7.2665 1.7845C8.7075 1.1795 10.3025 0.877 12.0515 0.877C13.7895 0.877 15.3295 1.163 16.6715 1.735C18.0245 2.307 19.174 3.055 20.12 3.979L18.635 6.0415C18.547 6.1735 18.4315 6.289 18.2885 6.388C18.1565 6.487 17.9695 6.5365 17.7275 6.5365C17.5625 6.5365 17.392 6.4925 17.216 6.4045C17.04 6.3055 16.8475 6.19 16.6385 6.058C16.4295 5.915 16.1875 5.761 15.9125 5.596C15.6375 5.431 15.3185 5.2825 14.9555 5.1505C14.5925 5.0075 14.169 4.892 13.685 4.804C13.212 4.705 12.662 4.6555 12.035 4.6555C10.968 4.6555 9.989 4.848 9.098 5.233C8.218 5.607 7.459 6.157 6.821 6.883C6.183 7.598 5.688 8.478 5.336 9.523C4.984 10.557 4.808 11.7395 4.808 13.0705C4.808 14.4125 4.995 15.606 5.369 16.651C5.754 17.696 6.271 18.576 6.92 19.291C7.569 20.006 8.3335 20.556 9.2135 20.941C10.0935 21.315 11.0395 21.502 12.0515 21.502C12.6565 21.502 13.201 21.469 13.685 21.403C14.18 21.337 14.631 21.2325 15.038 21.0895C15.456 20.9465 15.8465 20.765 16.2095 20.545C16.5835 20.314 16.952 20.0335 17.315 19.7035C17.425 19.6045 17.5405 19.5275 17.6615 19.4725C17.7825 19.4065 17.909 19.3735 18.041 19.3735ZM32.7469 10.5625H28.8364L27.8299 15.7105H31.7239L32.7469 10.5625ZM39.1984 8.1865L38.9509 9.556C38.8959 9.897 38.7584 10.15 38.5384 10.315C38.3184 10.48 37.9774 10.5625 37.5154 10.5625H35.4034L34.3804 15.7105H37.1854C37.5264 15.7105 37.7684 15.815 37.9114 16.024C38.0654 16.222 38.1039 16.563 38.0269 17.047L37.8784 18.0865H34.0339L32.6809 25H31.2289C31.0749 25 30.9264 24.967 30.7834 24.901C30.6514 24.824 30.5414 24.725 30.4534 24.604C30.3654 24.472 30.2994 24.3235 30.2554 24.1585C30.2224 23.9935 30.2279 23.812 30.2719 23.614L31.3774 18.0865H27.4834L26.3779 23.779C26.2899 24.219 26.1084 24.5325 25.8334 24.7195C25.5584 24.9065 25.2449 25 24.8929 25H23.4739L24.8269 18.0865H22.5499C22.2199 18.0865 21.9779 17.9875 21.8239 17.7895C21.6699 17.5915 21.6314 17.245 21.7084 16.75L21.8569 15.7105H25.1734L26.1799 10.5625H22.4344L22.6654 9.2095C22.7204 8.8575 22.8579 8.599 23.0779 8.434C23.2979 8.269 23.6389 8.1865 24.1009 8.1865H26.5264L27.6649 2.4445C27.7309 2.0925 27.8959 1.8175 28.1599 1.6195C28.4239 1.4105 28.7319 1.306 29.0839 1.306H30.5359L29.1829 8.1865H33.0934L34.4299 1.306H35.8654C36.2174 1.306 36.4924 1.416 36.6904 1.636C36.8884 1.856 36.9544 2.142 36.8884 2.494L35.7499 8.1865H39.1984Z" fill="white"/>
</svg>
