<svg width="60" height="21" viewBox="0 0 60 21" fill="none" xmlns="http://www.w3.org/2000/svg">
<path d="M14.8952 19.7925C14.7347 19.7903 14.579 19.7373 14.45 19.6409C14.3209 19.5444 14.2251 19.4095 14.1759 19.2551C13.9771 18.6586 13.7726 18.0669 13.5623 17.48C13.2899 16.7187 13.027 15.9382 12.7736 15.1387H4.8077C4.55321 15.9382 4.29399 16.7234 4.03004 17.4943C3.82814 18.0855 3.62886 18.6735 3.43221 19.2583C3.38295 19.4115 3.28763 19.5453 3.15953 19.6411C3.03142 19.7368 2.87694 19.7898 2.71764 19.7925H0.766397C0.641655 19.789 0.519529 19.7555 0.410059 19.695C0.300589 19.6344 0.206899 19.5484 0.136685 19.4441C0.0664716 19.3398 0.0217384 19.2201 0.00616498 19.0949C-0.00940841 18.9697 0.00462286 18.8426 0.047102 18.724C0.622328 17.0228 1.17337 15.4279 1.70022 13.9393C2.33118 12.1509 2.95163 10.4571 3.56155 8.858C4.17148 7.25886 4.77405 5.73628 5.36926 4.29025C5.94553 2.89631 6.53864 1.51993 7.14857 0.161084C7.16735 0.114663 7.19917 0.0748214 7.2401 0.0464784C7.28103 0.0181355 7.32927 0.002532 7.37887 0.00159486H10.327C10.3766 0.002532 10.4249 0.0181355 10.4658 0.0464784C10.5067 0.0748214 10.5385 0.114663 10.5573 0.161084C11.1673 1.51993 11.7609 2.89631 12.3382 4.29025C12.9366 5.73734 13.5397 7.25992 14.1475 8.858C14.7553 10.4561 15.381 12.1498 16.0246 13.9393C16.5578 15.4279 17.1135 17.0228 17.6919 18.724C17.7344 18.8426 17.7484 18.9697 17.7329 19.0949C17.7173 19.2201 17.6726 19.3398 17.6023 19.4441C17.5321 19.5484 17.4384 19.6344 17.329 19.695C17.2195 19.7555 17.0974 19.789 16.9726 19.7925H14.8952ZM9.14083 4.69535C9.11408 4.62284 9.06606 4.56032 9.00319 4.51618C8.94032 4.47204 8.8656 4.44839 8.78906 4.44839C8.71252 4.44839 8.63781 4.47204 8.57494 4.51618C8.51207 4.56032 8.46405 4.62284 8.43731 4.69535C8.11026 5.51725 7.75166 6.45504 7.36152 7.50873C6.82625 8.95582 6.26838 10.5263 5.68789 12.22H11.8902C11.3098 10.5263 10.7477 8.94625 10.204 7.48002C9.81175 6.42314 9.45736 5.49492 9.14083 4.69535ZM41.9603 4.48163C43.0487 4.48163 43.9646 4.62464 44.7081 4.91066C45.3913 5.15503 46.0038 5.56715 46.4906 6.11001C46.9458 6.64998 47.2699 7.29008 47.437 7.97922C47.6342 8.76786 47.7301 9.57887 47.7225 10.3923V18.783C47.724 18.9679 47.6619 19.1476 47.5468 19.2913C47.4317 19.4351 47.2708 19.5339 47.0915 19.5709C46.6436 19.6559 46.0857 19.7511 45.4179 19.8563C44.269 20.0269 43.1088 20.1079 41.9476 20.0988C41.1675 20.1045 40.3893 20.0183 39.6289 19.842C38.9755 19.6959 38.3594 19.414 37.8196 19.0142C37.3135 18.6253 36.9112 18.115 36.6491 17.5294C36.3478 16.8177 36.2041 16.048 36.228 15.2742C36.2032 14.522 36.3659 13.7756 36.7012 13.1036C37.0102 12.5262 37.4536 12.0335 37.9931 11.6682C38.5688 11.2844 39.211 11.0138 39.886 10.8707C40.6231 10.7069 41.3759 10.6257 42.1306 10.6283C42.5124 10.6298 42.8937 10.6538 43.2727 10.7001C43.7032 10.7538 44.1299 10.8347 44.5504 10.9425V10.3636C44.5522 9.97871 44.5067 9.59511 44.4147 9.22163C44.33 8.8708 44.1682 8.54374 43.9415 8.2647C43.6994 7.97996 43.3909 7.7607 43.0439 7.62675C42.5956 7.46151 42.1202 7.38411 41.6432 7.39868C40.9413 7.39345 40.2404 7.45056 39.5484 7.56933C39.2729 7.61931 39.0195 7.67247 38.7881 7.72882C38.6842 7.75207 38.5766 7.75309 38.4722 7.7318C38.3678 7.71052 38.269 7.6674 38.1821 7.60522C38.0952 7.54304 38.0222 7.46318 37.9676 7.37075C37.913 7.27833 37.8782 7.17538 37.8653 7.06854L37.6902 5.8644C37.6567 5.66993 37.6958 5.46981 37.7998 5.30277C37.9038 5.13573 38.0654 5.01363 38.2534 4.9601C38.5783 4.8761 38.9616 4.79157 39.4033 4.70651C40.2469 4.5514 41.1029 4.47612 41.9603 4.48163ZM42.2332 17.3572C43.0076 17.377 43.7822 17.3199 44.5456 17.1865V13.3588C44.2867 13.2847 44.0232 13.2277 43.7569 13.1881C43.3792 13.1283 42.9972 13.0995 42.6149 13.102C42.2452 13.1024 41.8761 13.1312 41.5107 13.1881C41.1607 13.2399 40.821 13.3476 40.5043 13.5071C40.2127 13.6519 39.9641 13.872 39.7834 14.1451C39.592 14.457 39.4969 14.8196 39.5106 15.1865C39.5106 16.0052 39.7556 16.5714 40.2456 16.8851C40.7357 17.1987 41.3982 17.3566 42.2332 17.3587V17.3572ZM27.3977 18.0605C27.2694 17.6524 27.1781 17.2333 27.1248 16.8085C27.1223 16.7828 27.114 16.7581 27.1005 16.7362C27.0871 16.7142 27.0688 16.6957 27.0472 16.682C27.0256 16.6683 27.0012 16.6598 26.9758 16.6571C26.9504 16.6544 26.9247 16.6577 26.9008 16.6666C26.6568 16.758 26.3561 16.8553 25.9985 16.9584C25.4796 17.0988 24.944 17.1659 24.4069 17.1578C23.5362 17.1578 22.9194 16.901 22.5566 16.3875C22.1938 15.8739 22.0124 15.0175 22.0124 13.8181V8.39548H25.7982V5.91703C25.8016 5.81518 25.7651 5.7161 25.6965 5.64141C25.6279 5.56671 25.5329 5.52246 25.4322 5.51831H22.0124V1.79903C22.0131 1.76468 22.007 1.73054 21.9946 1.69857C21.9821 1.66659 21.9636 1.6374 21.94 1.61267C21.9164 1.58793 21.8883 1.56814 21.8571 1.55442C21.826 1.54069 21.7924 1.53331 21.7585 1.53269L18.9759 1.9665C18.942 1.96712 18.9084 1.9745 18.8773 1.98822C18.8461 2.00195 18.818 2.02174 18.7944 2.04648C18.7708 2.07121 18.7523 2.1004 18.7398 2.13238C18.7274 2.16435 18.7213 2.19849 18.722 2.23284V13.8468C18.7114 14.7334 18.7928 15.6186 18.9649 16.4879C19.1022 17.1984 19.3901 17.8704 19.8088 18.4576C20.2253 19.014 20.7852 19.4438 21.4272 19.7C22.1076 19.985 22.9552 20.128 23.97 20.1291C24.8044 20.1291 25.5143 19.9696 26.1468 19.8579C26.5553 19.7878 27.2746 19.5868 27.7242 19.4544C27.7541 19.4452 27.7816 19.4293 27.8047 19.4078C27.8277 19.3864 27.8456 19.36 27.8571 19.3305C27.8686 19.3011 27.8734 19.2694 27.8712 19.2379C27.8689 19.2063 27.8597 19.1757 27.8441 19.1482C27.6562 18.8033 27.5065 18.4385 27.3977 18.0605ZM34.608 17.0812C34.6032 17.0608 34.5944 17.0415 34.5822 17.0245C34.57 17.0075 34.5546 16.9931 34.5368 16.9821C34.5191 16.9711 34.4994 16.9638 34.4788 16.9606C34.4583 16.9573 34.4373 16.9582 34.4171 16.9632C34.0283 17.0573 33.6238 17.0633 33.2325 16.9808C32.9823 16.8759 32.7559 16.7207 32.5668 16.5246C32.3976 16.3131 32.2808 16.0637 32.2261 15.7974C32.1568 15.4499 32.125 15.0959 32.1315 14.7415V0.266346C32.1321 0.231996 32.126 0.197857 32.1136 0.16588C32.1012 0.133903 32.0826 0.104714 32.0591 0.0799803C32.0355 0.0552467 32.0073 0.0354528 31.9761 0.0217296C31.945 0.00800638 31.9115 0.000622552 31.8775 -6.08401e-08L29.0934 0.430619C29.0594 0.431242 29.0259 0.438626 28.9947 0.452349C28.9636 0.466072 28.9354 0.485866 28.9118 0.5106C28.8883 0.535333 28.8697 0.564522 28.8573 0.596499C28.8449 0.628477 28.8388 0.662615 28.8394 0.696966V15.3875C28.8308 16.0562 28.9088 16.7232 29.0713 17.3715C29.2075 17.9199 29.4844 18.4222 29.8742 18.8276C30.3075 19.2478 30.8345 19.5563 31.4106 19.7272C31.9895 19.9074 34.313 20.2758 35.5118 19.5246C35.5289 19.5139 35.5436 19.4997 35.5549 19.4829C35.5662 19.4661 35.5738 19.447 35.5774 19.4271C35.581 19.4071 35.5804 19.3865 35.5756 19.3668C35.5708 19.3471 35.562 19.3286 35.5497 19.3125C35.2091 18.8541 34.9551 18.3361 34.8004 17.7846C34.7234 17.5539 34.6591 17.3191 34.608 17.0812ZM49.4719 19.2184C49.4685 19.3119 49.4985 19.4035 49.5564 19.4764C49.6143 19.5493 49.6963 19.5987 49.7873 19.6155C51.1534 19.8244 53.8176 20.1354 55.5669 19.9058C58.1176 19.5709 60.2991 18.1721 59.9663 14.8771C59.5956 11.5741 57.4362 11.0207 54.9297 10.4784C52.4563 9.99994 52.4263 8.89468 52.8648 8.23281C53.0955 7.93344 53.4124 7.71387 53.7718 7.60442C54.2441 7.44312 54.7405 7.36596 55.2388 7.37635C55.941 7.40204 56.6395 7.49171 57.3257 7.64429C57.597 7.69746 57.8468 7.75381 58.075 7.81335C58.179 7.84072 58.2874 7.84556 58.3934 7.82755C58.4993 7.80954 58.6003 7.76908 58.6896 7.70884C58.779 7.6486 58.8548 7.56993 58.912 7.47799C58.9691 7.38606 59.0065 7.28294 59.0214 7.1754L59.2139 5.97285C59.249 5.77871 59.2117 5.5783 59.1091 5.41038C59.0066 5.24246 58.8461 5.11896 58.6586 5.06377C58.3337 4.97445 57.9504 4.88408 57.5087 4.79263C56.6675 4.6233 55.8126 4.53359 54.9549 4.52469C53.8665 4.50768 52.9484 4.63634 52.2008 4.91066C51.514 5.14239 50.895 5.54301 50.3994 6.07652C49.9364 6.61036 49.6017 7.24516 49.4214 7.93137C48.8093 9.9505 49.9687 12.6267 52.2954 13.1004C54.6221 13.5741 56.72 13.3444 56.608 15.3763C56.4708 17.3508 51.5603 16.7048 49.6801 16.3572C49.6607 16.3537 49.6408 16.3545 49.6219 16.3596C49.6029 16.3647 49.5852 16.374 49.5702 16.3868C49.5551 16.3996 49.543 16.4155 49.5348 16.4336C49.5265 16.4516 49.5222 16.4713 49.5223 16.4911L49.4719 19.2184Z" fill="white"/>
</svg>
