<svg width="13" height="13" viewBox="0 0 13 13" fill="none" xmlns="http://www.w3.org/2000/svg">
<path d="M8.74338 8.128C8.78604 8.12267 8.82604 8.13067 8.86338 8.152C8.90604 8.17333 8.94071 8.19733 8.96738 8.224L9.49538 8.792C9.19138 9.14933 8.81804 9.42667 8.37538 9.624C7.93271 9.816 7.40204 9.912 6.78338 9.912C6.25538 9.912 5.77538 9.82133 5.34338 9.64C4.91671 9.45333 4.55138 9.19733 4.24738 8.872C3.94338 8.54133 3.70604 8.152 3.53538 7.704C3.37004 7.256 3.28738 6.76533 3.28738 6.232C3.28738 5.69333 3.37804 5.2 3.55938 4.752C3.74604 4.29867 4.00204 3.912 4.32738 3.592C4.65271 3.26667 5.03671 3.01333 5.47938 2.832C5.92738 2.65067 6.41271 2.56 6.93538 2.56C7.51671 2.56 8.01271 2.65333 8.42338 2.84C8.83404 3.02667 9.18871 3.26933 9.48738 3.568L9.07938 4.144C9.05271 4.176 9.01538 4.21067 8.96738 4.248C8.92471 4.28 8.86871 4.296 8.79938 4.296C8.71938 4.296 8.63671 4.26667 8.55138 4.208C8.47138 4.14933 8.36738 4.08533 8.23938 4.016C8.11138 3.94667 7.95138 3.88267 7.75938 3.824C7.56738 3.76533 7.31938 3.736 7.01538 3.736C6.65271 3.736 6.32738 3.79467 6.03938 3.912C5.75138 4.02933 5.50604 4.19733 5.30338 4.416C5.10071 4.62933 4.94604 4.89067 4.83938 5.2C4.73271 5.504 4.67938 5.848 4.67938 6.232C4.67938 6.632 4.73271 6.98667 4.83938 7.296C4.95138 7.60533 5.10338 7.86667 5.29538 8.08C5.49271 8.29333 5.72471 8.456 5.99138 8.568C6.25804 8.67467 6.54871 8.728 6.86338 8.728C7.13538 8.728 7.36204 8.70667 7.54338 8.664C7.72471 8.62133 7.88204 8.57067 8.01538 8.512C8.15404 8.448 8.27671 8.38133 8.38338 8.312C8.49538 8.24267 8.61538 8.18133 8.74338 8.128ZM0.895375 6.256C0.895375 5.71733 0.964709 5.19733 1.10338 4.696C1.24204 4.19467 1.43938 3.728 1.69538 3.296C1.95138 2.864 2.25804 2.46933 2.61538 2.112C2.97271 1.75467 3.36738 1.448 3.79938 1.192C4.23138 0.936 4.69538 0.738666 5.19138 0.599999C5.69271 0.461333 6.21271 0.391999 6.75138 0.391999C7.56204 0.391999 8.32204 0.546666 9.03138 0.856C9.74604 1.16 10.3674 1.57867 10.8954 2.112C11.4287 2.64 11.8474 3.26133 12.1514 3.976C12.4607 4.68533 12.6154 5.44533 12.6154 6.256C12.6154 7.06667 12.4607 7.82667 12.1514 8.536C11.8474 9.24533 11.4287 9.86667 10.8954 10.4C10.3674 10.928 9.74604 11.3467 9.03138 11.656C8.32204 11.96 7.56204 12.112 6.75138 12.112C6.21271 12.112 5.69271 12.0427 5.19138 11.904C4.69538 11.7653 4.23138 11.568 3.79938 11.312C3.36738 11.056 2.97271 10.752 2.61538 10.4C2.25804 10.0427 1.95138 9.648 1.69538 9.216C1.43938 8.77867 1.24204 8.312 1.10338 7.816C0.964709 7.31467 0.895375 6.79467 0.895375 6.256ZM1.76738 6.256C1.76738 6.72533 1.82604 7.17867 1.94338 7.616C2.06071 8.048 2.22604 8.45333 2.43938 8.832C2.65271 9.20533 2.91138 9.54667 3.21538 9.856C3.51938 10.16 3.85538 10.4213 4.22338 10.64C4.59138 10.8587 4.98871 11.0293 5.41538 11.152C5.84204 11.2693 6.28738 11.328 6.75138 11.328C7.21538 11.328 7.66071 11.2693 8.08738 11.152C8.51938 11.0293 8.92204 10.8587 9.29538 10.64C9.66871 10.4213 10.0074 10.16 10.3114 9.856C10.6154 9.54667 10.874 9.20533 11.0874 8.832C11.306 8.45333 11.474 8.048 11.5914 7.616C11.7087 7.184 11.7674 6.73067 11.7674 6.256C11.7674 5.78133 11.7087 5.32533 11.5914 4.888C11.474 4.45067 11.306 4.04267 11.0874 3.664C10.874 3.28533 10.6154 2.94133 10.3114 2.632C10.0074 2.32267 9.66871 2.05867 9.29538 1.84C8.92204 1.616 8.51938 1.44533 8.08738 1.328C7.66071 1.20533 7.21538 1.144 6.75138 1.144C6.28738 1.144 5.84204 1.20533 5.41538 1.328C4.98871 1.44533 4.59138 1.616 4.22338 1.84C3.85538 2.05867 3.51938 2.32267 3.21538 2.632C2.91138 2.94133 2.65271 3.28533 2.43938 3.664C2.22604 4.04267 2.06071 4.45067 1.94338 4.888C1.82604 5.32533 1.76738 5.78133 1.76738 6.256Z" fill="#4F4F4F"/>
</svg>
