<svg width="59" height="61" viewBox="0 0 59 61" fill="none" xmlns="http://www.w3.org/2000/svg">
<path d="M1.3547 22.4935C5.72127 28.7373 5.6865 31.5539 5.65869 34.2873C5.4501 54.1562 19.252 60.2959 27.4498 60.7885C28.0756 60.8232 28.6805 60.844 29.2854 60.844C33.0763 60.8889 36.8336 60.1312 40.3093 58.6208C43.7851 57.1105 46.9004 54.8818 49.4495 52.0819L54.0038 47.0731L54.0803 46.9829L56.34 44.4923C57.1401 43.6933 57.7096 42.694 57.9887 41.5994C58.2677 40.5048 58.246 39.3554 57.9258 38.2721C57.6057 37.1888 56.9988 36.2116 56.1692 35.4432C55.3395 34.6748 54.3177 34.1437 53.2111 33.9057C53.4283 33.1182 53.4717 32.2932 53.3383 31.4873C53.205 30.6815 52.898 29.9142 52.4386 29.2382C51.9793 28.5622 51.3784 27.9937 50.6775 27.5718C49.9765 27.15 49.1923 26.8849 48.3787 26.7948C48.6047 26.1717 48.7222 25.5148 48.7263 24.8522C48.7302 23.4054 48.2303 22.0021 47.3121 20.8823C46.3939 19.7624 45.1144 18.9955 43.6923 18.7126L51.2364 11.1576C51.8283 10.569 52.2967 9.86861 52.6144 9.09738C52.932 8.32614 53.0925 7.49951 53.0865 6.66571C53.0805 5.83192 52.9081 5.00768 52.5793 4.24109C52.2506 3.4745 51.7721 2.78093 51.1718 2.20086C50.5715 1.62078 49.8614 1.16582 49.0829 0.86254C48.3045 0.559256 47.4732 0.413723 46.6378 0.434432C45.8024 0.455141 44.9795 0.641678 44.2171 0.983157C43.4547 1.32464 42.7681 1.81421 42.1974 2.42332C33.9301 11.227 23.6534 21.2448 19.5997 22.8889C17.2356 23.8602 16.6655 23.104 14.8368 20.1139C13.5668 17.7713 11.8798 15.6791 9.85838 13.9396C7.4526 11.9901 4.62267 11.9346 2.27947 13.7869C-0.36967 15.8751 -0.752092 19.4688 1.3547 22.4935ZM51.8692 36.5489C52.3305 36.5471 52.7876 36.637 53.2137 36.8133C53.6399 36.9896 54.0266 37.2487 54.3514 37.5756C54.6792 37.907 54.938 38.2997 55.113 38.7313C55.288 39.1628 55.3758 39.6246 55.3713 40.0902C55.3668 40.5557 55.27 41.0157 55.0867 41.4438C54.9033 41.8719 54.6369 42.2595 54.3028 42.5845L52.0986 45.0057C51.5083 45.2839 50.8468 45.3751 50.2029 45.2672C49.5591 45.1594 48.9638 44.8575 48.4969 44.4021L48.3717 44.2703C47.8031 43.7139 47.4614 42.967 47.4126 42.1738C47.3638 41.3807 47.6114 40.5976 48.1075 39.976L51.5841 36.5072L51.8692 36.5489ZM49.7832 30.3468C50.2981 30.8562 50.6013 31.5407 50.6322 32.2636C50.6632 32.9864 50.4196 33.6942 49.9501 34.2456C49.892 34.2988 49.8385 34.3568 49.7902 34.4191L45.7991 38.4012C45.2354 38.6069 44.6253 38.6509 44.0379 38.5283C43.4505 38.4057 42.9092 38.1213 42.4755 37.7074L42.3086 37.5409C41.7613 36.9738 41.4397 36.2273 41.4038 35.4408C41.368 34.6543 41.6204 33.8817 42.1139 33.2674C42.6702 32.8373 44.9995 30.9989 46.2371 29.9374C46.7879 29.6047 47.4339 29.4643 48.0735 29.5384C48.713 29.6125 49.3097 29.8969 49.7693 30.3468H49.7832ZM44.916 22.3617C45.2437 22.6857 45.5034 23.0716 45.6801 23.4968C45.8568 23.922 45.9468 24.3781 45.9451 24.8384C45.8543 25.9654 45.3312 27.0141 44.4849 27.766C43.6367 28.5014 41.808 29.9652 40.4591 31.0197C39.8839 31.1835 39.2752 31.1901 38.6966 31.0387C38.1181 30.8874 37.5909 30.5837 37.1703 30.1594L37.0799 30.0693C36.4468 29.437 36.0912 28.5799 36.0912 27.6862C36.0912 26.7925 36.4468 25.9354 37.0799 25.3032L40.3478 22.0426C41.0175 21.5356 41.8485 21.2879 42.6871 21.3453C43.5257 21.4027 44.3151 21.7613 44.9091 22.3547L44.916 22.3617ZM4.0108 15.9306C5.3458 14.8761 6.68775 14.9178 8.10619 16.0624C9.87598 17.6021 11.3508 19.4498 12.4588 21.5153C13.1039 22.7196 13.9136 23.8287 14.8646 24.8106C14.8906 24.849 14.9184 24.886 14.9481 24.9216C15.0663 25.0465 17.7293 27.9533 15.0176 32.1783C14.8349 32.488 14.7798 32.8563 14.8638 33.2058C14.9478 33.5552 15.1644 33.8585 15.4681 34.0518C15.7717 34.2451 16.1387 34.3133 16.4917 34.242C16.8448 34.1708 17.1563 33.9656 17.3608 33.6698C18.1282 32.5722 18.6411 31.318 18.8624 29.998C19.0836 28.6781 19.0077 27.3256 18.6402 26.0386C19.3289 25.9445 20.0022 25.7602 20.6427 25.4905C26.1148 23.2497 38.9433 9.96438 44.2138 4.35194C44.5339 4.00744 44.9209 3.73141 45.3511 3.5406C45.7814 3.34979 46.2461 3.24819 46.7169 3.24194C47.1883 3.23458 47.6565 3.32166 48.0936 3.49802C48.5307 3.67438 48.9279 3.93644 49.2617 4.26869C49.5887 4.59412 49.848 4.98069 50.025 5.40628C50.202 5.83186 50.293 6.28809 50.293 6.74885C50.293 7.2096 50.202 7.66584 50.025 8.09142C49.848 8.517 49.5887 8.90357 49.2617 9.229L35.1052 23.326C34.53 23.8971 34.0736 24.5761 33.7621 25.3237C33.4507 26.0714 33.2903 26.8731 33.2903 27.6827C33.2903 28.4924 33.4507 29.2941 33.7621 30.0418C34.0736 30.7894 34.53 31.4684 35.1052 32.0395L35.1817 32.1158C36.1393 33.0739 37.3894 33.6866 38.7347 33.8571C38.4923 34.8583 38.5107 35.9048 38.7882 36.8969C39.0657 37.889 39.593 38.7938 40.32 39.5251L40.3756 39.5736L40.4313 39.6291C41.5593 40.7445 43.0845 41.3682 44.6727 41.3635C44.5777 42.2501 44.6833 43.1467 44.9817 43.9872C45.2801 44.8276 45.7638 45.5906 46.397 46.2197L46.5013 46.3377C47.3058 47.1384 48.3205 47.6963 49.4286 47.9472L47.3427 50.2435L47.287 50.3059C44.7974 52.9801 41.7369 55.0614 38.3319 56.3956C34.9269 57.7298 31.2648 58.2827 27.6167 58.0135C24.0339 57.7035 20.5841 56.5117 17.5763 54.5447C17.7919 54.5447 18.0144 54.5447 18.2369 54.5447H18.8279C22.3045 54.3227 25.482 52.2207 28.3189 48.301C28.5237 48.0016 28.6029 47.6342 28.5396 47.2774C28.4764 46.9205 28.2757 46.6024 27.9805 46.3913C27.6853 46.1801 27.319 46.0926 26.96 46.1474C26.6009 46.2022 26.2776 46.395 26.0592 46.6846C23.7438 49.9036 21.2615 51.6241 18.6749 51.7975C15.0663 52.0334 12.292 49.1543 12.2503 49.1127C12.1888 49.0486 12.1212 48.9905 12.0486 48.9392C9.87228 45.5121 8.37736 40.8085 8.44689 34.3081C8.48861 30.6381 8.15486 27.322 3.64228 20.884C2.59236 19.4133 2.30728 17.2904 4.0108 15.9306Z" fill="#212D3D"/>
</svg>
