<svg width="60" height="46" viewBox="0 0 60 46" fill="none" xmlns="http://www.w3.org/2000/svg">
<path d="M31.0511 32.2331C32.4029 32.2331 33.5012 31.1296 33.5012 29.7764C33.5012 28.4262 32.4029 27.3304 31.0511 27.3304L19.9503 19.1656L28.6009 29.9341C28.6812 31.2159 29.7491 32.2331 31.0511 32.2331Z" fill="#212D3D"/>
<path d="M42.2348 39.4669H17.7656V45.2737H42.2348V39.4669Z" fill="#212D3D"/>
<path d="M51.2132 9.51367C45.5468 3.84739 38.0131 0.726868 30 0.726868C21.9867 0.726868 14.4529 3.84739 8.78666 9.51367C3.12038 15.1799 0 22.7136 0 30.7269C0 35.9009 1.30351 40.8734 3.75094 45.2737H9.35806L13.4591 42.9057L11.648 39.7685L6.37462 42.8134C4.5116 39.1861 3.45916 35.0772 3.45916 30.7269C3.45916 29.957 3.49413 29.1951 3.55861 28.4416L9.84637 29.5502L10.4754 25.9828L4.11365 24.8611C5.25043 19.8419 7.81353 15.3583 11.353 11.8598L15.6633 16.9968L18.4383 14.6684L14.0953 9.49269C18.0777 6.50225 22.9254 4.60566 28.1889 4.24939V11.1197H31.8111V4.24939C37.0746 4.60594 41.9223 6.50239 45.9049 9.49283L41.5617 14.6684L44.3366 16.9968L48.647 11.8597C52.1863 15.3583 54.7494 19.8419 55.8862 24.861L49.5246 25.9829L50.1538 29.5501L56.4411 28.4413C56.5056 29.1949 56.5406 29.9567 56.5406 30.7266C56.5406 35.0772 55.4885 39.1862 53.6252 42.8132L48.3517 39.7687L46.5407 42.9057L50.6417 45.2734H56.2491C58.6966 40.8731 60 35.9006 60 30.7266C60.0001 22.7134 56.8793 15.1797 51.2132 9.51367Z" fill="#212D3D"/>
</svg>
